<svg xmlns="http://www.w3.org/2000/svg" xml:space="preserve" width="2000" height="1500" data-id="lg_Kei0cODoQRU6UcuHTQ" data-version="1"><path fill="#fff" stroke="transparent" d="M0 0h2000v1500H0z"/><g data-padding="20"><g transform="translate(-992.397 -731.545)scale(1.9129)"><path fill="#ed0530" stroke="transparent" d="M1114.568 763.87q58.91 15.84 88.11 41.83 29.21 25.99 29.21 67.57 0 33.16-20.79 59.4-20.79 26.23-61.13 41.08-40.35 14.85-97.77 14.85-67.81 0-119.54-17.57t-80.93-42.82l16.33-22.27q25.74 20.29 64.85 34.65 39.1 14.35 84.15 14.35 29.2 0 44.3-8.41 15.1-8.42 15.1-23.76 0-26.73-52.97-41.58l-64.35-18.81q-52.47-15.84-80.93-44.06-28.46-28.21-28.46-66.82 0-32.18 20.29-58.41 20.3-26.24 59.16-41.33 38.85-15.1 93.3-15.1 51.98 0 95.79 11.88 43.8 11.88 71.52 28.71l-16.33 22.77q-23.27-13.37-55.69-22.77-32.42-9.41-68.06-9.41-31.19 0-47.77 9.66-16.58 9.65-16.58 26.48 0 12.87 12.37 22.52 12.38 9.65 47.03 19.06Z"/><rect width="403.89" height="559.35" x="438.617" y="94.16" fill="none" rx="0" ry="0" transform="translate(401 400.67)"/></g><path fill="transparent" stroke="transparent" stroke-width="2.013" d="M593.47 187.5h813.06v1125H593.47z"/></g></svg>